REM DIRINDEX 1\2,1\3\5,1\3\6,1\4\7,1\4\8
REM DIRNAME cjc139,folder01,folder02,folder03,folder04,folder05,folder06,folder07
TITLE ""
FILE "EG_E3_24.mp3" MP3
  TRACK 01 AUDIO
    TITLE "0:"
    INDEX 01 00:00:00
  TRACK 02 AUDIO
    TITLE "5:cjc139_2497"
    INDEX 01 00:00:17
  TRACK 03 AUDIO
    TITLE "6:cjc139_2498"
    INDEX 01 00:02:61
  TRACK 04 AUDIO
    TITLE "5:cjc139_2499"
    INDEX 01 00:05:44
  TRACK 05 AUDIO
    TITLE "6:cjc139_2500"
    INDEX 01 00:08:13
  TRACK 06 AUDIO
    TITLE "5:cjc139_2501"
    INDEX 01 00:10:74
  TRACK 07 AUDIO
    TITLE "6:cjc139_2502"
    INDEX 01 00:13:53
  TRACK 08 AUDIO
    TITLE "5:cjc139_2503"
    INDEX 01 00:16:38
  TRACK 09 AUDIO
    TITLE "6:cjc139_2504"
    INDEX 01 00:19:60
  TRACK 10 AUDIO
    TITLE "5:cjc139_2505"
    INDEX 01 00:22:44
  TRACK 11 AUDIO
    TITLE "6:cjc139_2506"
    INDEX 01 00:25:56
  TRACK 12 AUDIO
    TITLE "5:cjc139_2507"
    INDEX 01 00:28:35
  TRACK 13 AUDIO
    TITLE "6:cjc139_2508"
    INDEX 01 00:31:20
  TRACK 14 AUDIO
    TITLE "5:cjc139_2509"
    INDEX 01 00:34:04
  TRACK 15 AUDIO
    TITLE "6:cjc139_2510"
    INDEX 01 00:37:56
  TRACK 16 AUDIO
    TITLE "5:cjc139_2511"
    INDEX 01 00:40:38
  TRACK 17 AUDIO
    TITLE "6:cjc139_2512"
    INDEX 01 00:43:68
  TRACK 18 AUDIO
    TITLE "5:cjc139_2513"
    INDEX 01 00:46:53
  TRACK 19 AUDIO
    TITLE "6:cjc139_2514"
    INDEX 01 00:49:53
  TRACK 20 AUDIO
    TITLE "5:cjc139_2515"
    INDEX 01 00:52:37
  TRACK 21 AUDIO
    TITLE "6:cjc139_2516"
    INDEX 01 00:55:26
  TRACK 22 AUDIO
    TITLE "5:cjc139_2517"
    INDEX 01 00:58:11
  TRACK 23 AUDIO
    TITLE "6:cjc139_2518"
    INDEX 01 01:01:21
  TRACK 24 AUDIO
    TITLE "5:cjc139_2519"
    INDEX 01 01:04:05
  TRACK 25 AUDIO
    TITLE "6:cjc139_2520"
    INDEX 01 01:06:55
  TRACK 26 AUDIO
    TITLE "5:cjc139_2521"
    INDEX 01 01:09:40
  TRACK 27 AUDIO
    TITLE "6:cjc139_2522"
    INDEX 01 01:13:02
  TRACK 28 AUDIO
    TITLE "5:cjc139_2523"
    INDEX 01 01:15:60
  TRACK 29 AUDIO
    TITLE "6:cjc139_2524"
    INDEX 01 01:19:15
  TRACK 30 AUDIO
    TITLE "5:cjc139_2525"
    INDEX 01 01:21:74
  TRACK 31 AUDIO
    TITLE "6:cjc139_2526"
    INDEX 01 01:25:57
  TRACK 32 AUDIO
    TITLE "5:cjc139_2527"
    INDEX 01 01:28:37
  TRACK 33 AUDIO
    TITLE "6:cjc139_2528"
    INDEX 01 01:31:36
  TRACK 34 AUDIO
    TITLE "5:cjc139_2529"
    INDEX 01 01:34:22
  TRACK 35 AUDIO
    TITLE "6:cjc139_2530"
    INDEX 01 01:37:26
  TRACK 36 AUDIO
    TITLE "5:cjc139_2531"
    INDEX 01 01:40:11
  TRACK 37 AUDIO
    TITLE "6:cjc139_2532"
    INDEX 01 01:42:41
  TRACK 38 AUDIO
    TITLE "5:cjc139_2533"
    INDEX 01 01:45:26
  TRACK 39 AUDIO
    TITLE "6:cjc139_2534"
    INDEX 01 01:47:66
  TRACK 40 AUDIO
    TITLE "5:cjc139_2535"
    INDEX 01 01:50:53
  TRACK 41 AUDIO
    TITLE "6:cjc139_2536"
    INDEX 01 01:53:61
  TRACK 42 AUDIO
    TITLE "5:cjc139_2537"
    INDEX 01 01:56:47
  TRACK 43 AUDIO
    TITLE "6:cjc139_2538"
    INDEX 01 01:59:34
  TRACK 44 AUDIO
    TITLE "5:cjc139_2539"
    INDEX 01 02:02:20
  TRACK 45 AUDIO
    TITLE "6:cjc139_2540"
    INDEX 01 02:04:70
  TRACK 46 AUDIO
    TITLE "5:cjc139_2541"
    INDEX 01 02:06:20
  TRACK 47 AUDIO
    TITLE "6:cjc139_2542"
    INDEX 01 02:09:22
  TRACK 48 AUDIO
    TITLE "5:cjc139_2543"
    INDEX 01 02:12:07
  TRACK 49 AUDIO
    TITLE "6:cjc139_2544"
    INDEX 01 02:15:19
  TRACK 50 AUDIO
    TITLE "5:cjc139_2545"
    INDEX 01 02:18:04
  TRACK 51 AUDIO
    TITLE "6:cjc139_2546"
    INDEX 01 02:20:71
  TRACK 52 AUDIO
    TITLE "5:cjc139_2547"
    INDEX 01 02:23:52
  TRACK 53 AUDIO
    TITLE "6:cjc139_2548"
    INDEX 01 02:26:64
  TRACK 54 AUDIO
    TITLE "5:cjc139_2549"
    INDEX 01 02:29:49
  TRACK 55 AUDIO
    TITLE "6:cjc139_2550"
    INDEX 01 02:32:41
  TRACK 56 AUDIO
    TITLE "5:cjc139_2551"
    INDEX 01 02:35:24
  TRACK 57 AUDIO
    TITLE "6:cjc139_2552"
    INDEX 01 02:38:12
  TRACK 58 AUDIO
    TITLE "5:cjc139_2553"
    INDEX 01 02:40:68
  TRACK 59 AUDIO
    TITLE "6:cjc139_2554"
    INDEX 01 02:42:67
  TRACK 60 AUDIO
    TITLE "5:cjc139_2555"
    INDEX 01 02:45:50
  TRACK 61 AUDIO
    TITLE "6:cjc139_2556"
    INDEX 01 02:49:08
  TRACK 62 AUDIO
    TITLE "5:cjc139_2557"
    INDEX 01 02:51:66
  TRACK 63 AUDIO
    TITLE "6:cjc139_2558"
    INDEX 01 02:54:62
  TRACK 64 AUDIO
    TITLE "5:cjc139_2559"
    INDEX 01 02:57:47
  TRACK 65 AUDIO
    TITLE "6:cjc139_2560"
    INDEX 01 03:01:17
  TRACK 66 AUDIO
    TITLE "5:cjc139_2561"
    INDEX 01 03:04:00
  TRACK 67 AUDIO
    TITLE "6:cjc139_2562"
    INDEX 01 03:06:71
  TRACK 68 AUDIO
    TITLE "5:cjc139_2563"
    INDEX 01 03:09:56
  TRACK 69 AUDIO
    TITLE "6:cjc139_2564"
    INDEX 01 03:13:30
  TRACK 70 AUDIO
    TITLE "5:cjc139_2565"
    INDEX 01 03:16:15
  TRACK 71 AUDIO
    TITLE "6:cjc139_2566"
    INDEX 01 03:19:74
  TRACK 72 AUDIO
    TITLE "5:cjc139_2567"
    INDEX 01 03:22:59
  TRACK 73 AUDIO
    TITLE "6:cjc139_2568"
    INDEX 01 03:25:37
  TRACK 74 AUDIO
    TITLE "5:cjc139_2569"
    INDEX 01 03:28:22
  TRACK 75 AUDIO
    TITLE "6:cjc139_2570"
    INDEX 01 03:30:66
  TRACK 76 AUDIO
    TITLE "5:cjc139_2571"
    INDEX 01 03:33:51
  TRACK 77 AUDIO
    TITLE "6:cjc139_2572"
    INDEX 01 03:36:63
  TRACK 78 AUDIO
    TITLE "5:cjc139_2573"
    INDEX 01 03:39:47
  TRACK 79 AUDIO
    TITLE "6:cjc139_2574"
    INDEX 01 03:42:52
  TRACK 80 AUDIO
    TITLE "5:cjc139_2575"
    INDEX 01 03:45:34
  TRACK 81 AUDIO
    TITLE "6:cjc139_2576"
    INDEX 01 03:48:17
  TRACK 82 AUDIO
    TITLE "5:cjc139_2577"
    INDEX 01 03:51:00
  TRACK 83 AUDIO
    TITLE "6:cjc139_2578"
    INDEX 01 03:54:43
  TRACK 84 AUDIO
    TITLE "5:cjc139_2579"
    INDEX 01 03:57:28
  TRACK 85 AUDIO
    TITLE "6:cjc139_2580"
    INDEX 01 04:00:00
  TRACK 86 AUDIO
    TITLE "5:cjc139_2581"
    INDEX 01 04:02:60
  TRACK 87 AUDIO
    TITLE "6:cjc139_2582"
    INDEX 01 04:05:21
  TRACK 88 AUDIO
    TITLE "5:cjc139_2583"
    INDEX 01 04:08:04
  TRACK 89 AUDIO
    TITLE "6:cjc139_2584"
    INDEX 01 04:10:50
  TRACK 90 AUDIO
    TITLE "5:cjc139_2585"
    INDEX 01 04:13:34
  TRACK 91 AUDIO
    TITLE "6:cjc139_2586"
    INDEX 01 04:16:35
  TRACK 92 AUDIO
    TITLE "0:"
    INDEX 01 04:19:27
